# xmcd
#
# Track frame offsets:
#	150
#	4984
#	35162
#	52788
#	74894
#	95679
#	123124
#	135851
#	164970
#	190267
#	209519
#	261221
#	298367
#
# Disc length: 4233 seconds
#
# Revision: 1
# Processed by: cddbd v1.5.2PL0 Copyright (c) Steve Scherf et al.
# Submitted via: audiograbber 1.83.01
#
DISCID=d010870d
DTITLE=Grateful Dead - 72-04-14A Tivoli Garden, Copenhagen, Denmark
DYEAR=1900
DGENRE=
TTITLE0=Intro and Tuning
TTITLE1=Bertha
TTITLE2=Me and My Uncle
TTITLE3=Mr Charlie
TTITLE4=You Win Again
TTITLE5=Black Throated Wind
TTITLE6=Chinatown Shuffle
TTITLE7=Loser
TTITLE8=Me and Bobby McGee
TTITLE9=Cumberland Blues
TTITLE10=Playing In The Band
TTITLE11=Tennessee Jed
TTITLE12=El Paso
EXTD=
EXTT0=
EXTT1=
EXTT2=
EXTT3=
EXTT4=
EXTT5=
EXTT6=
EXTT7=
EXTT8=
EXTT9=
EXTT10=
EXTT11=
EXTT12=
PLAYORDER=
